<svg width="150" height="150" viewBox="0 0 150 150" xmlns="http://www.w3.org/2000/svg">
  <rect width="150" height="150" fill="#ffffff" stroke="#000000" stroke-width="2"/>
  <rect x="10" y="10" width="20" height="20" fill="#000000"/>
  <rect x="40" y="10" width="10" height="10" fill="#000000"/>
  <rect x="60" y="10" width="10" height="10" fill="#000000"/>
  <rect x="80" y="10" width="20" height="20" fill="#000000"/>
  <rect x="120" y="10" width="20" height="20" fill="#000000"/>
  
  <rect x="10" y="40" width="10" height="10" fill="#000000"/>
  <rect x="30" y="40" width="10" height="10" fill="#000000"/>
  <rect x="50" y="40" width="10" height="10" fill="#000000"/>
  <rect x="70" y="40" width="10" height="10" fill="#000000"/>
  <rect x="90" y="40" width="10" height="10" fill="#000000"/>
  <rect x="110" y="40" width="10" height="10" fill="#000000"/>
  <rect x="130" y="40" width="10" height="10" fill="#000000"/>
  
  <rect x="10" y="120" width="20" height="20" fill="#000000"/>
  <rect x="40" y="120" width="10" height="10" fill="#000000"/>
  <rect x="60" y="120" width="10" height="10" fill="#000000"/>
  <rect x="80" y="120" width="20" height="20" fill="#000000"/>
  <rect x="120" y="120" width="20" height="20" fill="#000000"/>
  
  <text x="75" y="75" text-anchor="middle" font-family="Arial" font-size="7" fill="#666">
    Generate QR for:
  </text>
  <text x="75" y="85" text-anchor="middle" font-family="Arial" font-size="6" fill="#666">
    yourdomain.com/assets/files/
  </text>
  <text x="75" y="95" text-anchor="middle" font-family="Arial" font-size="6" fill="#666">
    Wisani_Owen_Resume.pdf
  </text>
</svg>